<?xml version="1.0" encoding="UTF-8" standalone="no"?>
<!-- Created with Inkscape (http://www.inkscape.org/) -->

<svg
   width="180"
   height="180"
   viewBox="0 0 180 180"
   version="1.1"
   id="svg5"
   inkscape:version="1.2.2 (732a01da63, 2022-12-09)"
   sodipodi:docname="rotate logo.svg"
   xmlns:inkscape="http://www.inkscape.org/namespaces/inkscape"
   xmlns:sodipodi="http://sodipodi.sourceforge.net/DTD/sodipodi-0.dtd"
   xmlns:xlink="http://www.w3.org/1999/xlink"
   xmlns="http://www.w3.org/2000/svg"
   xmlns:svg="http://www.w3.org/2000/svg">
  <sodipodi:namedview
     id="namedview7"
     pagecolor="#ffffff"
     bordercolor="#999999"
     borderopacity="1"
     inkscape:showpageshadow="0"
     inkscape:pageopacity="0"
     inkscape:pagecheckerboard="0"
     inkscape:deskcolor="#d1d1d1"
     inkscape:document-units="px"
     showgrid="false"
     inkscape:zoom="3.8722222"
     inkscape:cx="71.664275"
     inkscape:cy="90.129125"
     inkscape:window-width="1600"
     inkscape:window-height="877"
     inkscape:window-x="-8"
     inkscape:window-y="-8"
     inkscape:window-maximized="1"
     inkscape:current-layer="layer1" />
  <defs
     id="defs2">
    <linearGradient
       inkscape:collect="always"
       id="linearGradient3845">
      <stop
         style="stop-color:#a51a1a;stop-opacity:1;"
         offset="0.20710856"
         id="stop3841" />
      <stop
         style="stop-color:#29c53a;stop-opacity:0.97285062;"
         offset="0.81233245"
         id="stop3843" />
    </linearGradient>
    <linearGradient
       inkscape:collect="always"
       id="linearGradient2742">
      <stop
         style="stop-color:#a51a1a;stop-opacity:1;"
         offset="0.2386059"
         id="stop2738" />
      <stop
         style="stop-color:#29c53a;stop-opacity:0.97285062;"
         offset="0.81233245"
         id="stop2740" />
    </linearGradient>
    <linearGradient
       id="linearGradient2669"
       inkscape:swatch="solid">
      <stop
         style="stop-color:#a92020;stop-opacity:1;"
         offset="0"
         id="stop2667" />
    </linearGradient>
    <linearGradient
       id="linearGradient2649"
       inkscape:swatch="solid">
      <stop
         style="stop-color:#9a0808;stop-opacity:1;"
         offset="0"
         id="stop2647" />
    </linearGradient>
    <inkscape:path-effect
       effect="tiling"
       id="path-effect2592"
       is_visible="true"
       lpeversion="1"
       unit="px"
       seed="1;1"
       lpesatellites=""
       num_rows="10"
       num_cols="5"
       gapx="-103.29986"
       gapy="-104.33286"
       offset="0"
       offset_type="false"
       scale="-3"
       rotate="11"
       mirrorrowsx="false"
       mirrorrowsy="false"
       mirrorcolsx="false"
       mirrorcolsy="false"
       mirrortrans="false"
       shrink_interp="false"
       split_items="false"
       link_styles="false"
       interpolate_scalex="true"
       interpolate_scaley="true"
       interpolate_rotatex="true"
       interpolate_rotatey="true"
       random_scale="false"
       random_rotate="false"
       random_gap_y="false"
       random_gap_x="false"
       transformorigin="translate(-2.5824964,-4.3902439)" />
    <inkscape:path-effect
       effect="tiling"
       id="path-effect2526"
       is_visible="true"
       lpeversion="1"
       unit="px"
       seed="1;1"
       lpesatellites=""
       num_rows="3"
       num_cols="3"
       gapx="-92.969874"
       gapy="-103.81636"
       offset="0"
       offset_type="false"
       scale="-3"
       rotate="34"
       mirrorrowsx="false"
       mirrorrowsy="false"
       mirrorcolsx="false"
       mirrorcolsy="false"
       mirrortrans="false"
       shrink_interp="false"
       split_items="false"
       link_styles="false"
       interpolate_scalex="true"
       interpolate_scaley="true"
       interpolate_rotatex="true"
       interpolate_rotatey="true"
       random_scale="false"
       random_rotate="false"
       random_gap_y="false"
       random_gap_x="false"
       transformorigin="translate(-2.5824964,-4.3902439)" />
    <inkscape:path-effect
       effect="curvestitching"
       id="path-effect1007"
       is_visible="true"
       lpeversion="1"
       count="4"
       startpoint_edge_variation="0;1"
       startpoint_spacing_variation="0;1"
       endpoint_edge_variation="0.6;1"
       endpoint_spacing_variation="0.5;1"
       strokepath="M 0,0 H 1"
       prop_scale="1"
       scale_y_rel="false" />
    <linearGradient
       inkscape:collect="always"
       xlink:href="#linearGradient2742"
       id="linearGradient2744"
       x1="36.318523"
       y1="76.700146"
       x2="142.90674"
       y2="76.700146"
       gradientUnits="userSpaceOnUse" />
    <linearGradient
       inkscape:collect="always"
       xlink:href="#linearGradient3845"
       id="linearGradient3839"
       gradientUnits="userSpaceOnUse"
       x1="36.318523"
       y1="76.700146"
       x2="142.90674"
       y2="76.700146" />
  </defs>
  <g
     inkscape:label="Camada 1"
     inkscape:groupmode="layer"
     id="layer1">
    <g
       id="g2524"
       transform="translate(-2.5824964,-4.3902439)"
       inkscape:path-effect="#path-effect2592"
       class="UnoptimicedTransforms"
       style="opacity:1;stroke:url(#linearGradient2744);stroke-opacity:1;fill-opacity:1;fill:none">
      <g
         id="g1005"
         transform="translate(6.456241,15.494979)"
         class="UnoptimicedTransforms"
         style="stroke:url(#linearGradient2744);stroke-opacity:1;fill-opacity:1;fill:none">
        <path
           style="fill:none;stroke:url(#linearGradient2744);stroke-opacity:1;fill-opacity:1"
           id="rect234"
           width="78.507896"
           height="68.694405"
           x="61.747871"
           y="-55.787582"
           ry="0"
           sodipodi:type="rect"
           transform="rotate(48.338672)"
           class="UnoptimicedTransforms"
           d="m 61.747871,-55.787582 78.507899,0 0,68.694404 -78.507899,0 z m 8.371994,-5.777487 74.753525,14.530612 L 132.1591,18.374869 57.40558,3.8442568 Z m 9.040079,-3.942653 68.423776,27.645001 -24.18937,59.870803 -68.42378,-27.6450014 z m 9.319849,-2.065368 59.916457,38.910203 -34.04642,52.426897 -59.916463,-38.910203 z m 9.220606,-0.224516 49.696991,47.991827 -41.99284,43.484865 -49.696997,-47.991827 z M 69.995392,-61.398613 144.74891,-46.868001 132.03463,18.541325 57.281107,4.010713 Z m 9.040079,-3.942652 68.423779,27.645001 -24.18937,59.870802 -68.423783,-27.6450012 z m 9.319849,-2.065369 59.91646,38.910203 -34.04643,52.426898 -59.916455,-38.910203 z m 9.220607,-0.224516 49.696993,47.991828 -41.99285,43.484865 -49.696989,-47.991828 z m 8.767113,1.506283 38.27574,54.663419 L 96.788288,22.02982 58.51255,-32.633599 Z M 78.910998,-65.174809 147.33478,-37.529808 123.1454,22.340994 54.721624,-5.3040069 Z m 9.319849,-2.065369 59.916463,38.910203 -34.04643,52.426898 -59.916458,-38.910203 z m 9.220607,-0.224516 49.696996,47.991828 -41.99285,43.484865 -49.696992,-47.991828 z m 8.767116,1.506284 38.27573,54.663418 -47.830485,33.491268 -38.275738,-54.663418 z m 7.99789,3.061587 26.18427,58.810836 -51.45948,22.911236 -26.184272,-58.810837 z m -26.110086,-4.176899 59.916456,38.910204 -34.04642,52.426897 -59.916461,-38.910203 z m 9.220607,-0.224515 49.696989,47.991827 -41.99284,43.484865 -49.696995,-47.991827 z m 8.767109,1.506283 38.27574,54.663418 -47.830488,33.491268 -38.275737,-54.663418 z m 7.99789,3.061587 26.18428,58.8108362 L 88.816777,18.991705 62.632506,-39.819131 Z m 6.96303,4.38661 L 135.00675,2.0878809 82.129075,14.295655 68.177333,-46.135983 Z M 97.202508,-67.131781 146.8995,-19.139954 104.90665,24.344911 55.209662,-23.646916 Z m 8.767112,1.506283 38.27574,54.663418 L 96.414869,22.529188 58.139132,-32.13423 Z m 7.99789,3.061587 26.18427,58.8108364 L 88.692304,19.158161 62.508033,-39.652675 Z m 6.96303,4.38661 L 134.88228,2.2543371 82.004603,14.462111 68.05286,-45.969527 Z m 5.72151,5.439147 2.08231,59.6296544 L 76.558419,8.7135246 74.476105,-50.91613 Z m -20.8069,-12.720888 38.27573,54.663418 -47.830483,33.491268 -38.275738,-54.663418 z m 7.99789,3.061587 26.18427,58.8108366 L 88.567831,19.324617 62.38356,-39.486219 Z m 6.96303,4.38661 L 134.75781,2.4207933 81.88013,14.628567 67.928387,-45.80307 Z m 5.72151,5.439147 2.08231,59.6296546 -52.175944,1.8220242 -2.082313,-59.6296548 z m 4.3383,6.190886 L 121.9005,10.224361 72.370973,2.3796555 81.336352,-54.225518 Z M 113.71857,-62.230999 139.90284,-3.4201622 88.443359,19.491074 62.259087,-39.319763 Z m 6.96302,4.386611 L 134.63334,2.5872495 81.755657,14.795024 67.803914,-45.636614 Z m 5.72151,5.439146 2.08232,59.6296549 L 76.309473,9.046437 74.22716,-50.583217 Z m 4.3383,6.190886 -8.96538,56.605174 -49.529519,-7.8447062 8.965378,-56.6051738 z m 2.88123,6.628067 L 114.82674,12.055014 69.640598,-4.3913948 88.436495,-56.032698 Z M 120.55712,-57.677932 134.50886,2.7537057 81.631184,14.96148 67.679441,-45.470158 Z m 5.72151,5.439147 2.08231,59.6296541 -52.175939,1.8220241 -2.082314,-59.6296542 z m 4.3383,6.190885 -8.96538,56.605174 -49.529522,-7.844706 8.965379,-56.605174 z m 2.88123,6.628067 L 114.70226,12.22147 69.516125,-4.2249386 88.312022,-55.866242 Z m 1.41789,6.751481 L 107.8249,12.418897 68.373559,-11.28586 95.464712,-56.373109 Z m -8.76189,-19.403977 2.08231,59.6296543 -52.175942,1.8220241 -2.082314,-59.6296544 z m 4.3383,6.190885 L 121.52708,10.72373 71.997555,2.8790242 80.962934,-53.72615 Z m 2.88123,6.628067 -18.7959,51.641304 L 69.391652,-4.0584824 88.187549,-55.699786 Z m 1.41789,6.751481 -27.09115,45.087249 -39.451344,-23.704756 27.091153,-45.08725 z m 0.0126,6.57582 -33.6205,37.339351 -32.671931,-29.417938 33.620501,-37.339352 z m -4.43623,-19.788912 -8.96537,56.605174 -49.529528,-7.8447056 8.965379,-56.6051734 z m 2.88123,6.628067 L 114.45332,12.554383 69.267179,-3.8920262 88.063077,-55.53333 Z m 1.4179,6.751481 -27.09116,45.087249 -39.451336,-23.704756 27.091152,-45.087249 z m 0.0126,6.57582 -33.6205,37.339352 -32.671934,-29.417939 33.620504,-37.339351 z m -1.2762,6.128427 L 95.157036,9.1896185 69.938828,-24.276074 108.18534,-53.096885 Z" />
        <ellipse
           style="fill:none;stroke:url(#linearGradient3839);stroke-opacity:1;fill-opacity:1"
           id="path954"
           cx="82.898132"
           cy="60.946915"
           rx="30.479"
           ry="30"
           d="m 113.37713,60.946915 c 0,16.568542 -13.645911,30 -30.478998,30 -16.833087,0 -30.479,-13.431458 -30.479,-30 0,-16.568543 13.645913,-30 30.479,-30 16.833087,0 30.478998,13.431457 30.478998,30 z m -1.19031,5.605747 C 109.12024,82.32887 93.640938,92.592363 77.612837,89.476816 61.584735,86.361269 51.07735,71.046475 54.143934,55.270267 57.210518,39.49406 72.689819,29.230567 88.71792,32.346114 c 16.0281,3.115547 26.53549,18.43034 23.4689,34.206548 z m -2.18632,5.06906 C 104.16621,86.062082 87.543456,92.963168 72.872532,87.03573 58.201607,81.108292 51.038095,64.596929 56.872379,50.156569 62.706663,35.716209 79.329419,28.815122 94.000343,34.742561 108.67127,40.669999 115.83478,57.181362 110.0005,71.621722 Z m -3.03065,4.364398 C 98.758126,88.63107 81.686779,92.118619 68.839932,83.775779 55.993084,75.432938 52.235576,58.418973 60.447303,45.774024 c 8.211726,-12.64495 25.283073,-16.132499 38.12992,-7.789658 12.846847,8.34284 16.604357,25.356805 8.392627,38.001754 z m -3.6969,3.529487 C 93.144614,90.00381 76.29585,90.16444 65.640185,79.874385 54.984521,69.584329 54.55704,52.740223 64.685379,42.25202 74.813719,31.763818 91.662483,31.603188 102.31815,41.893243 c 10.65566,10.290056 11.08314,27.134162 0.9548,37.622364 z m 8.70678,-12.945289 C 108.91314,82.346526 93.43384,92.610019 77.405739,89.494472 61.377638,86.378924 50.870252,71.064131 53.936836,55.287923 57.00342,39.511716 72.482721,29.248222 88.510822,32.36377 104.53892,35.479317 115.04631,50.79411 111.97973,66.570318 Z m -2.18633,5.06906 C 103.95911,86.079738 87.336358,92.980824 72.665434,87.053386 57.99451,81.125948 50.830997,64.614585 56.665281,50.174225 62.499565,35.733865 79.122321,28.832778 93.793246,34.760217 108.46417,40.687655 115.62768,57.199018 109.7934,71.639378 Z m -3.03065,4.364398 C 98.551028,88.648726 81.479681,92.136275 68.632834,83.793434 55.785987,75.450594 52.028479,58.436629 60.240205,45.791679 68.451931,33.14673 85.523278,29.659181 98.370125,38.002021 c 12.846845,8.342841 16.604355,25.356806 8.392625,38.001755 z m -3.69689,3.529487 C 92.937516,90.021466 76.088752,90.182096 65.433088,79.89204 54.777424,69.601985 54.349942,52.757879 64.478282,42.269676 74.606621,31.781474 91.455385,31.620844 102.11105,41.910899 c 10.65566,10.290055 11.08315,27.134162 0.95481,37.622364 z m -4.167446,2.605725 C 87.362082,90.216814 71.357109,87.263821 63.150306,75.543292 54.943504,63.822763 57.642621,47.773025 69.178953,39.695198 c 11.536332,-8.077827 27.541305,-5.124833 35.748107,6.595696 8.2068,11.720529 5.50769,27.770267 -6.028646,35.848094 z M 109.5863,71.657033 C 103.75202,86.097393 87.129261,92.99848 72.458336,87.071042 57.787412,81.143603 50.6239,64.632241 56.458184,50.191881 62.292468,35.751521 78.915224,28.850434 93.586148,34.777872 108.25707,40.705311 115.42059,57.216673 109.5863,71.657033 Z m -3.03064,4.364399 C 98.34393,88.666382 81.272584,92.15393 68.425736,83.81109 55.578889,75.46825 51.821381,58.454285 60.033107,45.809335 68.244834,33.164386 85.31618,29.676837 98.163028,38.019677 c 12.846842,8.34284 16.604352,25.356806 8.392632,38.001755 z m -3.6969,3.529487 C 92.730419,90.039122 75.881654,90.199752 65.22599,79.909696 54.570326,69.619641 54.142845,52.775535 64.271184,42.287332 74.399524,31.799129 91.248288,31.638499 101.90395,41.928555 c 10.65567,10.290055 11.08315,27.134161 0.95481,37.622364 z m -4.167443,2.605725 C 87.154985,90.23447 71.150012,87.281477 62.943209,75.560948 54.736406,63.840419 57.435523,47.79068 68.971855,39.712854 c 11.536332,-8.077827 27.541305,-5.124833 35.748105,6.595695 8.20681,11.720529 5.50769,27.770268 -6.028643,35.848095 z m -4.433735,1.636277 C 81.845966,89.318928 67.233123,83.576389 61.618884,70.966601 56.004645,58.356813 61.515007,43.654846 73.926623,38.128839 86.338239,32.602832 100.95108,38.34537 106.56532,50.955158 112.17956,63.564946 106.6692,78.266913 94.257582,83.792921 Z M 106.34856,76.039088 C 98.136833,88.684037 81.065486,92.171586 68.218639,83.828746 55.371792,75.485906 51.614283,58.471941 59.82601,45.826991 68.037736,33.182042 85.109083,29.694493 97.95593,38.037333 c 12.84685,8.34284 16.60436,25.356805 8.39263,38.001755 z m -3.6969,3.529487 C 92.523321,90.056777 75.674557,90.217407 65.018893,79.927352 54.363228,69.637297 53.935747,52.79319 64.064087,42.304988 74.192426,31.816785 91.04119,31.656155 101.69685,41.946211 112.35252,52.236266 112.78,69.080372 102.65166,79.568575 Z m -4.167441,2.605724 C 86.947887,90.252126 70.942914,87.299132 62.736111,75.578604 54.529309,63.858075 57.228425,47.808336 68.764758,39.730509 c 11.536332,-8.077826 27.541305,-5.124833 35.748112,6.595696 8.2068,11.720529 5.50768,27.770268 -6.028651,35.848094 z m -4.433735,1.636277 C 81.638869,89.336584 67.026026,83.594045 61.411787,70.984257 55.797547,58.374469 61.30791,43.672502 73.719525,38.146495 c 12.411616,-5.526007 27.024455,0.216531 32.638695,12.826319 5.61424,12.609788 0.10388,27.311755 -12.307736,32.837762 z m -4.496346,0.664148 C 76.800463,87.419142 64.036534,79.302091 61.045103,66.344782 58.053673,53.387474 65.967536,40.496578 78.72121,37.55216 c 12.753675,-2.944417 25.5176,5.172634 28.50903,18.129942 2.99143,12.957309 -4.92243,25.848205 -17.676102,28.792622 z M 102.44456,79.586231 C 92.316223,90.074433 75.467459,90.235063 64.811795,79.945008 54.156131,69.654952 53.72865,52.810846 63.856989,42.322644 73.985329,31.834441 90.834093,31.673811 101.48976,41.963866 c 10.65566,10.290056 11.08314,27.134162 0.9548,37.622365 z m -4.167438,2.605724 C 86.740789,90.269782 70.735816,87.316788 62.529014,75.596259 54.322211,63.87573 57.021328,47.825992 68.55766,39.748165 c 11.536332,-8.077826 27.541305,-5.124833 35.74811,6.595696 8.2068,11.720529 5.50768,27.770267 -6.028648,35.848094 z m -4.433735,1.636277 C 81.431771,89.354239 66.818928,83.611701 61.204689,71.001913 55.59045,58.392125 61.100812,43.690158 73.512428,38.164151 85.924043,32.638143 100.53689,38.380682 106.15113,50.99047 111.76536,63.600258 106.255,78.302225 93.843387,83.828232 Z M 89.34704,84.49238 C 76.593366,87.436798 63.829436,79.319746 60.838006,66.362438 57.846575,53.40513 65.760438,40.514234 78.514113,37.569816 91.267787,34.625398 104.03172,42.74245 107.02315,55.699758 110.01458,68.657066 102.10071,81.547962 89.34704,84.49238 Z M 84.982495,84.22271 C 72.398073,84.662167 61.834445,74.653842 61.38797,61.868489 60.941496,49.083136 70.781246,38.362309 83.365668,37.922851 95.95009,37.483394 106.51372,47.491719 106.96019,60.277072 107.40667,73.062425 97.566916,83.783252 84.982495,84.22271 Z M 98.070024,82.209611 C 86.533692,90.287438 70.528719,87.334444 62.321916,75.613915 54.115113,63.893386 56.81423,47.843648 68.350562,39.765821 c 11.536333,-8.077827 27.541306,-5.124833 35.748108,6.595696 8.2068,11.720529 5.50769,27.770267 -6.028646,35.848094 z m -4.433735,1.636277 C 81.224673,89.371895 66.611831,83.629357 60.997591,71.019569 55.383352,58.409781 60.893714,43.707814 73.30533,38.181807 c 12.411616,-5.526008 27.02446,0.216531 32.6387,12.826319 5.61424,12.609788 0.10387,27.311755 -12.307741,32.837762 z m -4.496347,0.664148 C 76.386268,87.454454 63.622339,79.337402 60.630908,66.380094 57.639478,53.422786 65.55334,40.53189 78.307015,37.587472 91.06069,34.643054 103.82462,42.760106 106.81605,55.717414 109.80748,68.674722 101.89362,81.565618 89.139942,84.510036 Z M 84.775397,84.240365 C 72.190976,84.679823 61.627347,74.671498 61.180873,61.886145 60.734399,49.100792 70.574149,38.379965 83.15857,37.940507 c 12.584422,-0.439458 23.14805,9.568868 23.59452,22.354221 0.44648,12.785353 -9.393271,23.50618 -21.977693,23.945637 z M 80.71986,83.112466 C 68.773733,81.220386 60.647809,69.847678 62.5701,57.710812 64.492391,45.573946 75.734964,37.268906 87.68109,39.160987 c 11.946126,1.89208 20.07205,13.264789 18.14976,25.401654 -1.92229,12.136866 -13.164864,20.441906 -25.11099,18.549825 z m 12.709331,0.751078 C 81.017576,89.389551 66.404733,83.647012 60.790494,71.037224 55.176254,58.427437 60.686617,43.72547 73.098232,38.199462 c 12.411616,-5.526007 27.024458,0.216532 32.638698,12.82632 5.61424,12.609788 0.10388,27.311754 -12.307739,32.837762 z m -4.496346,0.664148 C 76.17917,87.47211 63.415241,79.355058 60.423811,66.39775 57.43238,53.440442 65.346243,40.549546 78.099917,37.605128 90.853592,34.66071 103.61752,42.777762 106.60895,55.73507 109.60038,68.692378 101.68652,81.583274 88.932845,84.527692 Z M 84.5683,84.258021 C 71.983878,84.697479 61.42025,74.689153 60.973775,61.903801 60.527301,49.118448 70.367051,38.397621 82.951473,37.958163 95.535894,37.518705 106.09952,47.527031 106.546,60.312384 106.99247,73.097736 97.152721,83.818564 84.5683,84.258021 Z M 80.512762,83.130122 C 68.566636,81.238042 60.440712,69.865334 62.363003,57.728468 64.285293,45.591602 75.527866,37.286562 87.473992,39.178643 99.420118,41.070723 107.54604,52.443431 105.62375,64.580297 103.70146,76.717163 92.458888,85.022203 80.512762,83.130122 Z m -3.59338,-1.878449 C 66.020846,77.28493 60.452861,65.093175 64.48294,54.020626 68.513018,42.948076 80.615051,37.187682 91.513587,41.154425 102.41212,45.121167 107.98011,57.312922 103.95003,68.385472 99.919951,79.458021 87.817918,85.218415 76.919382,81.251673 Z m 11.806365,3.293675 C 75.972073,87.489765 63.208143,79.372714 60.216713,66.415406 57.225283,53.458097 65.139145,40.567201 77.89282,37.622784 c 12.753674,-2.944418 25.5176,5.172633 28.50903,18.129942 2.99143,12.957308 -4.92243,25.848204 -17.676103,28.792622 z M 84.361202,84.275677 C 71.77678,84.715135 61.213152,74.706809 60.766678,61.921456 60.320203,49.136104 70.159954,38.415276 82.744375,37.975819 c 12.584422,-0.439458 23.148055,9.568868 23.594525,22.35422 0.44647,12.785353 -9.393277,23.50618 -21.977698,23.945638 z M 80.305664,83.147778 C 68.359538,81.255697 60.233614,69.882989 62.155905,57.746123 64.078196,45.609258 75.320769,37.304218 87.266895,39.196299 99.213021,41.088379 107.33894,52.461087 105.41665,64.597953 103.49436,76.734819 92.25179,85.039858 80.305664,83.147778 Z M 76.712285,81.269329 C 65.813749,77.302586 60.245764,65.110831 64.275842,54.038282 68.30592,42.965732 80.407953,37.205338 91.306489,41.172081 102.20503,45.138823 107.77301,57.330578 103.74293,68.403128 99.712854,79.475677 87.610821,85.236071 76.712285,81.269329 Z M 73.704657,78.773705 C 64.189308,73.056307 61.184464,60.584563 66.993151,50.917286 72.801837,41.250009 85.224421,38.048 94.73977,43.765398 c 9.51535,5.717398 12.52019,18.189142 6.71151,27.856419 -5.80869,9.667277 -18.231275,12.869286 -27.746623,7.151888 z m 10.449447,5.519628 C 71.569683,84.732791 61.006054,74.724465 60.55958,61.939112 60.113106,49.153759 69.952856,38.432932 82.537278,37.993475 c 12.584421,-0.439458 23.148052,9.568867 23.594522,22.35422 0.44648,12.785353 -9.393274,23.50618 -21.977696,23.945638 z M 80.098567,83.165434 C 68.152441,81.273353 60.026517,69.900645 61.948807,57.763779 63.871098,45.626913 75.113671,37.321874 87.059797,39.213954 99.005923,41.106035 107.13185,52.478743 105.20956,64.615609 103.28727,76.752475 92.044693,85.057514 80.098567,83.165434 Z m -3.59338,-1.87845 C 65.606651,77.320242 60.038666,65.128487 64.068744,54.055937 68.098823,42.983388 80.200856,37.222994 91.099392,41.189736 101.99793,45.156479 107.56591,57.348234 103.53583,68.420783 99.505756,79.493333 87.403723,85.253727 76.505187,81.286984 Z M 73.497559,78.791361 C 63.982211,73.073963 60.977367,60.602219 66.786053,50.934942 c 5.808686,-9.667277 18.231271,-12.869286 27.746619,-7.151888 9.515348,5.717398 12.520188,18.189142 6.711508,27.856419 -5.808688,9.667277 -18.231272,12.869286 -27.746621,7.151888 z m -2.33179,-2.960989 C 63.28556,68.735 62.741163,56.492895 69.949825,48.486865 c 7.208662,-8.006029 19.440608,-8.744263 27.320817,-1.648891 7.880208,7.095372 8.424608,19.337477 1.215944,27.343507 -7.208661,8.006029 -19.440608,8.744263 -27.320817,1.648891 z m 8.7257,7.352718 C 67.945343,81.291009 59.819419,69.918301 61.74171,57.781435 63.664,45.644569 74.906574,37.33953 86.8527,39.23161 98.798826,41.123691 106.92475,52.496399 105.00246,64.633265 103.08017,76.770131 91.837595,85.07517 79.891469,83.18309 Z m -3.59338,-1.87845 C 65.399553,77.337897 59.831568,65.146142 63.861647,54.073593 67.891725,43.001044 79.993758,37.240649 90.892294,41.207392 101.79083,45.174135 107.35882,57.36589 103.32874,68.438439 99.298659,79.510988 87.196625,85.271383 76.298089,81.30464 Z M 73.290462,78.809017 C 63.775113,73.091619 60.770269,60.619875 66.578955,50.952598 c 5.808686,-9.667277 18.231271,-12.869286 27.74662,-7.151888 9.515345,5.717398 12.520195,18.189142 6.711505,27.856419 -5.808685,9.667277 -18.23127,12.869286 -27.746618,7.151888 z m -2.33179,-2.960989 c -7.880209,-7.095372 -8.424606,-19.337477 -1.215945,-27.343507 7.208662,-8.00603 19.440608,-8.744263 27.320817,-1.648891 7.880206,7.095372 8.424606,19.337477 1.215945,27.343506 -7.208662,8.00603 -19.440608,8.744264 -27.320817,1.648892 z m -1.601653,-3.2639 c -6.082431,-8.071658 -4.365368,-19.624543 3.835168,-25.804089 8.200536,-6.179547 19.779167,-4.645688 25.861598,3.42597 6.082435,8.071658 4.365365,19.624542 -3.835168,25.804089 -8.200536,6.179547 -19.779168,4.645688 -25.861598,-3.42597 z" />
      </g>
    </g>
  </g>
</svg>
